<svg width="96" height="96" viewBox="0 0 96 96" fill="none" xmlns="http://www.w3.org/2000/svg">
<g clip-path="url(#clip0_68_733)">
<path fill-rule="evenodd" clip-rule="evenodd" d="M68.2003 4C83.5585 4 96 23.8016 96 48.2288C96.2207 59.2351 93.3893 70.0876 87.8196 79.5832C86.8709 82.0097 88.3324 83.7058 89.2452 84.7651C89.4724 85.0288 89.6657 85.2531 89.7793 85.4394C91.2148 87.718 88.1842 91.2271 84.5611 92.4121C84.5611 93.3235 23.6069 92.4121 23.6069 92.4121C20.075 92.6627 16.4747 90.9537 18.5255 87.3534C19.1521 86.1527 19.4981 84.8255 19.5375 83.4717C19.577 82.1179 19.3089 80.7728 18.7534 79.5376C12.4091 70.3449 9.1023 59.3965 9.29694 48.2288C9.29694 24.1206 23.3107 4.52409 40.7425 4H53.9587C48.1243 8.6398 44.0423 14.4629 41.3506 20.9364L38 17.5858L34 21.5858L30 17.5858L26 21.5858L22 17.5858L17.2929 22.2929L18.7071 23.7071L22 20.4142L26 24.4142L30 20.4142L34 24.4142L38 20.4142L40.5573 22.9715C40.272 23.7541 40.0057 24.5451 39.7578 25.3436L38 23.5858L34 27.5858L30 23.5858L26 27.5858L22 23.5858L17.2929 28.2929L18.7071 29.7071L22 26.4142L26 30.4142L30 26.4142L34 30.4142L38 26.4142L39.1264 27.5406C37.6643 33.0592 37.0282 38.8862 37.0282 44.7425C37.0282 61.4223 42.8388 75.9373 51.4066 83.4797C44.7073 75.4132 40.4007 62.63 40.4007 48.2516C40.4007 23.8016 52.8422 4 68.2003 4ZM10.2768 65.6606L2.87111 71.1977L4.51175 72.8611L10.9148 66.4809L10.2768 65.6606ZM9.5248 62.2426L1.09376 66.0252L2.32423 68.0076L9.95775 63.2452L9.5248 62.3109V62.2426ZM9.11464 58.6879L0 60.1462L0.683598 62.4249L9.31972 59.7361L9.11464 58.6879ZM18.0926 47.7503C18.0926 47.7503 14.7201 57.8448 14.5606 58.6879C14.4011 59.531 23.6753 66.7771 23.6753 66.7771L24.1994 57.3662L18.0926 47.7503ZM69.5448 19.7457C65.5521 19.7664 61.9007 22.5198 59.1313 27.0145C63.0506 32.187 65.6027 40.6864 65.6027 50.0745C65.7939 57.4856 63.9918 64.8121 60.3845 71.2889C61.382 72.8351 62.724 74.1294 64.3053 75.0703C65.8866 76.0112 67.6643 76.5731 69.4992 76.7121C78.1581 76.7121 85.1764 63.9516 85.1764 48.2288C85.1764 32.5337 78.1827 19.7904 69.5448 19.7457ZM69.5448 19.7457L69.4992 19.7455H69.5903L69.5448 19.7457ZM69.5903 16.7149C59.9971 16.7149 52.2269 30.8198 52.2269 48.2288C52.2269 65.6378 59.9971 79.7427 69.5903 79.7427C79.1835 79.7427 86.9537 65.6378 86.9537 48.2288C86.9537 30.8198 79.1835 16.7149 69.5903 16.7149Z" fill="white"/>
</g>
<defs>
<clipPath id="clip0_68_733">
<rect width="96" height="96" fill="white"/>
</clipPath>
</defs>
</svg>
