<svg width="96" height="96" viewBox="0 0 96 96" fill="none" xmlns="http://www.w3.org/2000/svg">
<g clip-path="url(#clip0_70_748)">
<path d="M23.1042 19.418C17.0436 27.6853 14.0211 37.6753 14.0367 49.3881C14.0219 61.1008 17.0444 71.0908 23.1042 79.3581C28.1015 86.179 34.1708 90.164 41.3121 91.313C38.7459 89.2015 36.3329 86.6341 34.1102 83.6318C26.9825 74.033 23.3748 62.3166 23.3896 48.8111C23.3748 35.3007 26.9825 23.5793 34.1127 13.978C35.8113 11.6579 37.7335 9.51019 39.8517 7.56567C33.4888 8.92887 27.9063 12.8797 23.1042 19.418Z" fill="white"/>
<path d="M36.7864 5.38006C33.0942 5.35754 29.44 6.12597 26.0695 7.63365C21.5957 9.6599 17.4678 13.1231 13.8045 17.9268C7.31677 26.4383 4.03399 36.8698 4.04387 48.9384C4.02905 61.0156 7.31183 71.4533 13.8045 79.9635C16.11 82.9745 18.5958 85.469 21.1904 87.3767C22.9667 88.6959 24.9013 89.7872 26.9492 90.6249C30.0716 91.8929 33.4127 92.5356 36.7827 92.5164C37.9225 92.5098 39.0609 92.4339 40.1915 92.2891C36.944 91.747 33.8169 90.6392 30.9523 89.0162C30.0732 88.5263 29.2208 87.9902 28.3985 87.41C25.6325 85.4604 23.038 82.9766 20.6147 79.9586C13.8292 71.4829 10.4336 61.2409 10.4278 49.2324C10.422 37.224 13.8177 26.9819 20.6147 18.5062C26.5674 11.0593 33.607 6.88204 41.7335 5.97434C41.7841 5.93481 41.8348 5.89033 41.8867 5.85079C41.6395 5.80261 41.3838 5.75689 41.1318 5.71612C39.6943 5.49126 38.2414 5.3789 36.7864 5.38006Z" fill="white"/>
<path d="M45.2794 5.31829C45.2682 5.31085 45.2551 5.30688 45.2417 5.30688C45.2283 5.30688 45.2152 5.31085 45.204 5.31829L45.2794 5.42455C45.3292 5.3807 45.3854 5.34485 45.4462 5.31829C45.3916 5.30343 45.334 5.30343 45.2794 5.31829Z" fill="white"/>
<path d="M46.0047 40.7184C46.4383 39.8318 46.962 38.9921 47.5676 38.2128C47.6912 38.0423 47.8246 37.8829 47.963 37.7272C48.0216 37.6522 48.0843 37.5805 48.1508 37.5122C48.9833 36.5415 49.9803 35.7251 51.0963 35.1005L51.121 35.0894C46.3972 29.2618 42.2635 24.8333 38.72 21.8038C38.2419 21.406 37.7761 21.0353 37.3214 20.6857C36.9335 21.2379 36.5381 21.8409 36.0736 22.5871C35.7721 23.0616 35.4904 23.5397 35.226 24.0265C35.9203 24.4256 36.6011 24.8395 37.2597 25.2744C36.6011 24.8395 35.9203 24.4256 35.226 24.0265C34.8442 24.69 34.502 25.3263 34.156 26.0182C34.1115 26.1071 34.0732 26.201 34.0325 26.29C34.8195 26.883 35.5966 27.5255 36.3676 28.2248C39.7768 31.3227 42.9892 35.4872 46.0047 40.7184Z" fill="white"/>
<path d="M65.7582 29.516L60.9396 35.3081C62.1639 36.0674 63.2423 37.0399 64.1236 38.1795C65.0361 39.3377 65.765 40.6296 66.2845 42.0096L72.2471 32.118L76.973 24.286L78.4395 21.8385C78.1529 19.7072 77.1249 18.4222 75.3409 17.9997L74.5551 18.9214L66.7256 28.3521C66.8409 28.5836 66.9611 28.8039 67.0863 29.0131C66.9603 28.8031 66.8401 28.5828 66.7256 28.3521L65.7582 29.516Z" fill="white"/>
<path d="M52.8074 34.3802C53.7744 34.0639 54.7849 33.9009 55.8023 33.8971C55.89 33.8971 55.9765 33.8909 56.0618 33.8909C56.3121 33.8913 56.5621 33.907 56.8105 33.9379C57.9041 34.0357 58.9725 34.322 59.9685 34.7842C60.6746 29.7581 60.6746 24.6579 59.9685 19.6318C59.39 15.6447 58.4128 11.7257 57.0514 7.93388C56.3921 7.49546 55.6192 7.25887 54.8275 7.25311C54.0565 7.25311 53.2555 7.48004 52.4244 7.93388C52.9555 10.8936 53.3238 13.8802 53.5277 16.8803C53.9166 22.7225 53.6751 28.5897 52.8074 34.3802Z" fill="white"/>
<path d="M37.7217 50.295C37.9437 50.8463 38.2446 51.3623 38.615 51.8271C40.8477 52.1554 43.0609 52.605 45.2448 53.1738C44.6887 51.4707 44.4089 49.6896 44.4158 47.8981C44.4146 46.5577 44.5672 45.2216 44.8704 43.916C42.8269 44.6861 40.7247 45.2901 38.5841 45.7223C37.0027 46.0363 35.4026 46.248 33.794 46.3562C32.2521 46.4495 30.706 46.447 29.1645 46.3488C29.1286 47.1247 29.1101 47.9673 29.1101 48.9434C29.1101 49.7501 29.1249 50.5594 29.1521 51.3501C30.6953 51.2785 32.2632 51.2773 33.8693 51.3613C35.4261 51.4366 36.9977 51.6084 38.615 51.8295C38.2444 51.364 37.9435 50.8471 37.7217 50.295Z" fill="white"/>
<path d="M80.8105 51.3847C82.5637 51.46 84.3626 51.6417 86.1911 51.8986C86.2906 51.6465 86.3764 51.3891 86.4481 51.1277C87.0375 49.1175 86.8559 47.2136 85.9342 45.4295C84.2748 45.795 82.5853 46.0076 80.8871 46.0645C76.9902 46.2111 72.3752 45.7766 67.0418 44.761C67.0962 45.0712 67.1468 45.4048 67.1938 45.7779C67.2605 46.4352 67.2976 47.0752 67.3174 47.8449C67.3211 49.5784 67.0645 51.3026 66.5563 52.96C70.9473 51.6701 75.6987 51.145 80.8105 51.3847Z" fill="white"/>
<path d="M78.2567 74.4926C77.8032 73.4498 77.3201 72.4367 76.821 71.4396C73.8744 65.6246 69.987 60.3365 65.3158 55.7893C64.9657 56.4257 64.5671 57.0341 64.1235 57.6092L64.0519 57.6969C63.8641 57.9255 63.6812 58.1504 63.4872 58.3678C64.1124 58.8793 64.7302 59.4044 65.3405 59.953C64.7326 59.4044 64.1149 58.8793 63.4872 58.3678L63.4205 58.4481L63.3686 58.505C62.5126 59.4234 61.5107 60.1941 60.4034 60.7857C62.6114 62.325 64.7132 64.0111 66.6947 65.8328C70.8213 69.6864 73.2849 73.4931 74.1164 77.228C74.1313 77.3034 74.1461 77.364 74.1609 77.4393C74.3139 78.1554 74.4 78.8842 74.4179 79.6163C76.6418 79.2531 77.9264 78.2556 78.2715 76.6239C78.4074 76.0036 78.3926 75.2932 78.2567 74.4926Z" fill="white"/>
<path d="M51.0492 60.6585C50.0733 60.1012 49.1883 59.3979 48.425 58.573C48.1692 58.3024 47.8925 57.9787 47.6034 57.6142C47.3662 57.3115 47.145 56.9964 46.9325 56.6789C45.2967 62.2231 42.2317 67.0527 37.7377 71.1679C36.8729 71.9524 35.9635 72.7048 35.0048 73.4363C35.0443 73.5055 35.0801 73.5771 35.1197 73.6475C35.5039 74.332 35.9314 75.0486 36.3947 75.7838C36.5875 76.0667 36.7814 76.3632 36.9742 76.661L37.0236 76.7302C37.8576 76.2026 38.673 75.6639 39.4452 75.0968C44.7777 71.2132 48.7162 66.4391 51.2605 60.7747L51.0492 60.6585Z" fill="white"/>
<path d="M56.3311 61.8842C56.2076 61.8903 56.084 61.9027 55.9543 61.9052H55.8591C54.9249 61.9025 53.9958 61.766 53.1002 61.4999C55.3736 67.7525 56.0663 74.5268 55.1784 81.823C54.9214 83.9086 54.386 86.3417 53.5722 89.1225C53.8292 89.2584 54.0862 89.3943 54.3432 89.5005C55.0638 89.8204 55.8559 89.9453 56.64 89.8625C56.7178 89.3683 56.7882 88.8741 56.8562 88.3898C56.7882 88.884 56.7178 89.3708 56.64 89.8625C56.7769 89.8502 56.9131 89.83 57.0477 89.802C57.5529 89.6726 58.0263 89.4413 58.4389 89.1225C58.8466 85.663 59.1481 82.4581 59.3754 79.5101C59.9306 71.5575 59.7852 65.5228 58.9393 61.406C58.0959 61.6843 57.2183 61.8452 56.3311 61.8842Z" fill="white"/>
<path d="M49.6469 38.8861C49.6076 38.9235 49.5724 38.9649 49.5419 39.0097C49.4181 39.1445 49.3018 39.2859 49.1935 39.4335C48.353 40.4911 47.6941 41.681 47.2438 42.9547C46.6996 44.545 46.4289 46.216 46.4432 47.8968C46.4432 50.0886 46.851 52.0531 47.6528 53.8211V53.8359C48.0639 54.7357 48.5812 55.5831 49.1935 56.3601C49.4208 56.648 49.663 56.9346 49.9039 57.1916C50.5283 57.8666 51.252 58.4424 52.05 58.8991H52.0649C53.222 59.5533 54.5299 59.894 55.8591 59.8875H55.9197C56.5191 59.8803 57.1159 59.8061 57.6988 59.6664C56.126 59.4934 54.1282 58.7002 52.4207 56.2155C50.9887 54.1152 50.2647 51.5984 50.2647 48.7345C50.2647 45.8705 50.9887 43.3402 52.4157 41.246C52.5059 41.1224 52.6715 40.8827 53.3263 40.1958C54.0807 39.4035 55.0123 38.8014 56.0445 38.4389C57.0477 38.0843 58.1374 37.7458 58.4253 37.7458C59.6747 37.7425 60.8985 38.0994 61.9503 38.7737C61.2856 38.022 60.5047 37.3817 59.6374 36.8772C58.7024 36.3559 57.6663 36.0416 56.5992 35.9555C56.3536 35.922 56.1054 35.9116 55.8579 35.9246C54.6684 35.9135 53.493 36.1827 52.4269 36.7104C52.3069 36.7567 52.1908 36.8125 52.0797 36.8772C51.1547 37.3953 50.3306 38.0758 49.6469 38.8861Z" fill="white"/>
<path d="M54.0911 42.3765C52.8963 44.1297 52.2922 46.2462 52.2922 48.7246C52.2922 51.2031 52.8963 53.3035 54.0911 55.0567C55.2858 56.8099 56.7203 57.671 58.4278 57.671C59.8634 57.671 61.1187 57.0372 62.206 55.7819C62.1306 55.541 62.0553 55.2988 61.9799 55.0715C62.0553 55.2988 62.1306 55.541 62.206 55.7819C62.3872 55.5554 62.5688 55.3137 62.7509 55.0567C63.0137 54.6697 63.251 54.2661 63.4613 53.8483C64.1861 52.3517 64.5485 50.6438 64.5485 48.7246C64.5485 46.2462 63.9444 44.1297 62.7509 42.3765C61.5573 40.6233 60.1204 39.7621 58.4265 39.7621C55.7319 39.7621 54.2715 42.1195 54.0911 42.3765ZM61.0878 41.6661C61.316 42.2361 61.5219 42.8036 61.7056 43.3686C61.5252 42.8028 61.3193 42.2352 61.0878 41.6661Z" fill="white"/>
<path d="M51.4904 89.0545L51.6312 88.5516C52.1452 86.8021 52.5344 85.1922 52.8173 83.7145C50.9607 84.9829 48.9314 85.9777 46.7917 86.6687C48.2683 87.6293 49.8435 88.4292 51.4904 89.0545Z" fill="white"/>
<path d="M50.5798 9.17682C48.1987 10.2009 45.9841 11.5752 44.0093 13.254C46.7431 13.4451 49.2001 14.1679 51.3804 15.4224C51.2012 13.385 50.9331 11.2933 50.5798 9.17682Z" fill="white"/>
<path d="M83.027 21.0168C82.6181 20.4188 82.1955 19.8356 81.773 19.2685C75.6991 11.2191 68.6159 7.30005 60.1229 7.30005H59.7239C59.4768 7.30005 59.2296 7.31117 58.9825 7.31982C60.3763 11.2191 61.3787 15.2474 61.975 19.3451C62.122 20.4028 62.2307 21.4616 62.3185 22.5204C63.3663 24.0208 64.2471 25.6312 64.9452 27.3229L65.1651 27.0597L72.9934 17.629L73.4999 17.0347C72.6158 15.5113 71.621 14.0548 70.5235 12.677C71.621 14.0548 72.6158 15.5113 73.4999 17.0347L74.6008 15.7424L75.8066 16.029C78.4012 16.6468 80.0469 18.6125 80.446 21.5691L80.5412 22.2721L78.7101 25.33L77.8452 26.7607L73.9756 33.1657L68.1069 42.9016C72.3348 43.6763 76.1118 44.0679 79.3662 44.0679C79.8604 44.0679 80.3398 44.0593 80.8093 44.042H80.8167C82.3867 43.989 83.9486 43.7934 85.4832 43.4576L87.0128 43.1092L87.7331 44.5028C88.9069 46.7712 89.128 49.1978 88.3917 51.7022C88.3006 52.0312 88.1917 52.3549 88.0655 52.6721L87.4749 54.1251L85.9157 53.9052C84.0327 53.6407 82.3327 53.4789 80.7265 53.4109C79.9395 53.3739 79.1611 53.3553 78.4012 53.3553C74.455 53.3553 70.7212 53.8594 67.268 54.8553C71.8612 59.4451 75.6978 64.7341 78.6347 70.5254C79.2142 71.6855 79.6998 72.7172 80.1174 73.6858L80.215 73.9119L80.257 74.159C80.4423 75.255 80.4411 76.2051 80.257 77.0625C79.8863 78.7861 78.6335 80.9865 74.7503 81.6216L72.446 81.9923L72.3978 79.6571C72.3815 79.05 72.3091 78.4458 72.1816 77.852L72.1334 77.6259C71.4564 74.589 69.4338 71.3878 66.1547 68.1346C65.2356 71.3768 63.6757 74.4016 61.5673 77.0304C61.5215 77.8792 61.4696 78.7465 61.4079 79.6435C61.1608 82.8645 60.842 86.1251 60.4615 89.3522L60.3601 90.2085L59.8795 90.5729C59.9524 90.5729 60.0229 90.5791 60.097 90.5791C68.5974 90.5655 75.6967 86.6415 81.7829 78.5835L82.0423 78.2276C82.2375 77.9607 82.4315 77.6951 82.6193 77.4258L82.6798 77.3393C88.2162 69.4715 91.032 59.9184 91.0456 48.9223C91.027 38.1757 88.3286 28.7821 83.027 21.0168Z" fill="white"/>
<path d="M85.6623 14.7194C82.4129 10.3539 78.8463 7.01384 74.9627 4.69929C70.6104 2.09976 65.8594 0.799988 60.7097 0.799988C56.1161 0.799988 51.8391 1.83288 47.8788 3.89867C46.9114 3.48972 45.944 3.11288 44.9927 2.79535C41.7284 1.70727 38.5041 1.16323 35.3198 1.16323C29.5169 1.16323 24.2223 2.8003 19.4359 6.07443C16.1717 8.29837 13.1438 11.2859 10.3524 15.0369C3.44581 24.2712 -0.00499782 35.4349 -5.57344e-05 48.5282C-5.57344e-05 61.6 3.45075 72.7637 10.3524 82.0194C13.1792 85.8125 16.2421 88.8189 19.5409 91.0387C24.3051 94.2602 29.5647 95.8783 35.3198 95.8931C36.1846 95.8783 37.0421 95.8474 37.9045 95.7696C41.4353 95.4664 44.8739 94.4812 48.0296 92.8686C48.2569 92.9921 48.4991 93.1095 48.74 93.2306C52.4792 95.0059 56.5706 95.9152 60.7097 95.8906C66.9697 95.8758 72.6424 93.9566 77.7278 90.1331L84.3329 78.5143C84.0302 78.9529 83.7151 79.3791 83.3951 79.814C76.9572 88.3375 69.1842 92.6042 60.0759 92.614C58.2697 92.6081 56.468 92.431 54.6952 92.0852C50.9627 91.3291 47.4711 89.7575 44.2514 87.3841C41.576 85.4196 39.0725 82.8958 36.7406 79.8128C36.2464 79.1481 35.7584 78.4673 35.2901 77.7878C35.0937 77.4851 34.8972 77.1824 34.7008 76.8957C34.2313 76.1544 33.7778 75.3995 33.3553 74.6434C29.5309 67.8727 27.4553 60.1499 27.1283 51.4749C27.0986 50.6438 27.0834 49.7975 27.0826 48.9359C27.0826 47.9994 27.0986 47.0764 27.1431 46.1708C27.4602 38.387 29.1932 31.3693 32.3422 25.1175C32.6906 24.4219 33.0526 23.7424 33.4455 23.0616C33.733 22.5328 34.0352 22.0192 34.3524 21.5209C34.7761 20.8401 35.2172 20.1618 35.683 19.4947C36.0302 19.0005 36.3774 18.5285 36.7406 18.059C38.0172 16.3441 39.4325 14.7371 40.9723 13.254C44.5841 9.76246 48.5588 7.4195 52.8963 6.22516C53.7064 5.99307 54.5289 5.80662 55.3599 5.66671C56.0098 5.56045 56.6597 5.47026 57.3244 5.39489C58.2383 5.29971 59.1571 5.25845 60.0759 5.27134C69.1891 5.25569 76.963 9.51824 83.3976 18.059C83.8362 18.6483 84.2748 19.2537 84.6974 19.8727C90.2745 28.0346 93.0655 37.7223 93.0705 48.9359C93.0556 60.3768 90.1439 70.2359 84.3354 78.513L77.7303 90.1356C80.5559 88.0043 83.2011 85.2689 85.6648 81.9589C92.5549 72.6785 95.9999 61.4744 95.9999 48.3465C95.9999 35.2187 92.554 24.0097 85.6623 14.7194ZM45.6722 5.16755C45.5935 5.21304 45.5179 5.26382 45.4461 5.31952C45.3851 5.3452 45.3288 5.38068 45.2793 5.42454C44.7208 5.78779 44.176 6.18068 43.6472 6.5884C40.8211 8.70444 38.1854 11.4148 35.7398 14.7194C28.8481 23.9998 25.4072 35.2088 25.4171 48.3465C25.4022 61.4801 28.8432 72.6843 35.7398 81.9589C38.6227 85.8582 41.7712 88.9412 45.1854 91.208C45.7142 91.5552 46.243 91.8727 46.7718 92.1964L46.8632 92.2421C46.8324 92.257 46.8027 92.257 46.7866 92.2718C43.6435 93.4665 40.3039 94.0559 36.7789 94.0707C33.0303 94.0707 29.4988 93.3908 26.1843 92.0309C23.9805 91.1312 21.8984 89.9581 19.987 88.5393C17.207 86.4995 14.6075 83.8839 12.1896 80.7259C5.40329 71.8235 2.01261 61.0745 2.01755 48.4788C2.00767 35.8847 5.40082 25.1352 12.197 16.2304C16.0807 11.1376 20.428 7.50063 25.2392 5.31952C28.8213 3.70264 32.6704 2.89131 36.7863 2.88555C38.3498 2.88374 39.911 3.0052 41.4554 3.24879C43.2088 3.53155 44.93 3.98678 46.5939 4.60786C46.2764 4.77466 45.9749 4.97111 45.6722 5.16755Z" fill="white"/>
</g>
<defs>
<clipPath id="clip0_70_748">
<rect width="96" height="96" fill="white"/>
</clipPath>
</defs>
</svg>
